PathFileType	4	(X/Y/Z)	C:/Users/opensim2020/Desktop/walking_exp_matlab/subject01_walking07_straight_01.trc																																																																																																																															
DataRate	CameraRate	NumFrames	NumMarkers	Units	OrigDataRate	OrigDataStartFrame	OrigNumFrames																																																																																																																											
100	100	8	43	mm	100	796	282																																																																																																																											
Frame#	Time	LFHD			RFHD			LBHD			RBHD			C7			T10			CLAV			STRN			RBAK			LSHO			LUPA			LELB			LFRM			LWRA			LWRB			LFIN			RSHO			RUPA			RELB			RFRM			RWRA			RWRB			RFIN			LASI			RASI			LPSI			RPSI			LTHI			LKNE			LTIB			LANK			LHEE			LTOE			RTHI			RKNE			RTIB			RANK			RHEE			RTOE			*39			*40			*41			*42		
		X1	Y1	Z1	X2	Y2	Z2	X3	Y3	Z3	X4	Y4	Z4	X5	Y5	Z5	X6	Y6	Z6	X7	Y7	Z7	X8	Y8	Z8	X9	Y9	Z9	X10	Y10	Z10	X11	Y11	Z11	X12	Y12	Z12	X13	Y13	Z13	X14	Y14	Z14	X15	Y15	Z15	X16	Y16	Z16	X17	Y17	Z17	X18	Y18	Z18	X19	Y19	Z19	X20	Y20	Z20	X21	Y21	Z21	X22	Y22	Z22	X23	Y23	Z23	X24	Y24	Z24	X25	Y25	Z25	X26	Y26	Z26	X27	Y27	Z27	X28	Y28	Z28	X29	Y29	Z29	X30	Y30	Z30	X31	Y31	Z31	X32	Y32	Z32	X33	Y33	Z33	X34	Y34	Z34	X35	Y35	Z35	X36	Y36	Z36	X37	Y37	Z37	X38	Y38	Z38	X39	Y39	Z39	X40	Y40	Z40	X41	Y41	Z41	X42	Y42	Z42	X43	Y43	Z43
																																																																																																																																		
142	1.41	-348.13272	1673.71472	1404.42468	-319.11923	1682.6803	1514.6449	-454.93057	1612.92944	1429.61853	-426.78674	1621.06934	1546.73108	-470.68738	1431.28735	1458.22217	-510.29596	1139.96338	1462.41663	-326.15308	1364.51282	1461.30505	-284.69025	1208.31091	1456.60242	-527.83966	1238.57458	1531.60632	-380.20938	1394.91077	1300.01367	-384.84091	1213.19849	1207.27039	-373.06461	1061.30469	1196.13184	-296.82224	972.13165	1177.11194	-187.17635	891.79395	1207.58057	-231.98805	869.1864	1175.80432	-161.68881	822.5882	1173.01367	-392.16953	1392.84167	1611.87805	-471.22165	1198.12524	1705.6189	-481.56601	1074.7179	1709.18152	-468.25089	955.50244	1742.40137	-398.48288	831.38647	1731.52051	-445.16577	836.9845	1766.71021	-417.05936	755.10309	1765.90356	-344.94937	926.23041	1358.58069	-339.37979	938.21307	1573.64636	-529.68475	944.01764	1417.53906	-522.25464	946.58295	1563.81726	-400.86398	591.37048	1321.67896	-420.98416	458.12506	1345.21741	-488.30167	280.86414	1348.90491	-537.39648	71.30304	1410.0188	-582.94928	45.86379	1465.44177	-394.50806	32.52102	1393.09583	-285.34073	625.43933	1644.88806	-237.41922	472.40717	1620.61023	-314.31558	311.39133	1626.79346	-370.60364	113.37366	1581.71887	-419.66208	79.48009	1527.79541	-244.07358	53.68356	1595.37659	-339.11713	1714.08752	1494.5354	1973.14954	1023.54547	-3101.89844	2012.53516	1022.07111	-3140.56909	NaN	NaN	NaN
143	1.42	-338.17264	1673.35266	1404.61829	-309.16107	1682.16309	1514.87585	-445.01535	1612.69702	1429.79993	-416.98621	1620.75513	1546.90027	-460.98758	1430.80518	1458.11523	-500.8096	1139.54614	1462.41064	-316.58572	1363.98962	1461.26025	-275.13412	1207.76733	1456.34302	-518.24719	1237.96216	1531.17725	-370.49814	1394.64624	1300.02466	-374.07498	1213.12256	1207.13831	-361.06528	1061.23108	1195.50098	-283.11624	973.61749	1176.4834	-171.43227	895.55646	1206.51367	-216.1199	871.76611	1175.21106	-144.94011	826.79755	1172.08679	-382.69296	1392.24426	1611.83521	-462.62488	1197.72583	1705.07971	-473.61319	1074.34473	1708.5	-460.98758	955.04968	1741.61169	-391.57507	830.66583	1730.88843	-438.64981	836.40045	1765.94897	-410.76077	754.24805	1765.03442	-336.05075	925.35248	1357.96948	-329.41843	937.6911	1573.28833	-520.52399	943.711	1417.97083	-512.43848	946.21497	1564.09619	-395.56503	591.06372	1321.77771	-417.82977	458.01547	1345.02173	-486.67273	281.39246	1348.91382	-537.20758	72.28311	1410.10815	-582.75146	47.13501	1465.48804	-394.11142	32.12587	1393.36938	-275.37677	624.82361	1644.80701	-227.29378	472.14807	1620.18896	-294.94885	307.38239	1627.4137	-338.46164	105.34079	1582.31873	-385.90262	68.90495	1528.71924	-208.29857	53.56921	1595.17395	-329.08606	1713.62561	1494.78052	1973.10413	1023.30267	-3101.75806	2012.58691	1022.05872	-3140.59277	NaN	NaN	NaN
144	1.43	-328.17691	1672.8772	1404.85278	-299.20819	1681.56433	1515.12854	-435.13882	1612.47632	1429.95679	-407.18286	1620.37952	1547.07104	-451.36151	1430.38831	1458.14819	-491.17258	1139.00586	1462.53442	-306.99771	1363.40942	1461.22803	-265.6091	1207.18445	1456.1322	-508.6037	1237.34851	1530.86438	-360.78415	1394.33862	1300.05872	-363.48697	1212.93896	1207.01611	-349.11438	1061.22583	1195.04248	-269.5022	974.99316	1176.00378	-156.48848	898.98737	1205.84326	-200.16698	874.56879	1174.46973	-128.53514	830.9751	1171.13574	-373.1337	1391.56592	1611.89417	-453.98407	1197.27136	1704.65271	-465.60516	1073.94165	1707.93604	-453.5184	954.56055	1740.90857	-384.77982	829.77295	1730.06458	-431.85074	835.71924	1765.02563	-404.12598	753.42554	1764.22095	-327.48431	924.48834	1357.5072	-319.16293	937.00323	1573.03735	-511.24435	943.42584	1418.57202	-502.41833	945.88239	1564.58301	-390.23145	590.8349	1321.79138	-414.76599	457.96393	1344.78137	-485.04565	281.98746	1348.89929	-536.80975	73.19729	1410.16162	-582.61151	48.2728	1465.49451	-394.06421	32.06474	1393.25134	-265.64987	623.97375	1645.06873	-217.90654	471.43887	1619.66162	-276.20416	303.84125	1628.00708	-306.22421	98.56245	1583.35034	-352.62378	60.46039	1530.03235	-173.04283	54.02218	1595.05164	-319.0914	1713.07629	1495.05139	1973.16516	1023.23132	-3101.93555	2012.49915	1021.99042	-3140.62549	NaN	NaN	NaN
145	1.44	-318.12604	1672.35559	1405.21252	-289.20767	1680.85828	1515.51965	-425.43558	1612.30286	1430.15613	-397.34787	1619.93103	1547.36377	-441.59406	1429.78772	1458.18909	-481.52814	1138.47437	1462.92871	-297.32437	1362.73938	1461.33813	-255.92613	1206.52148	1456.04407	-498.94305	1236.61133	1530.71655	-351.04712	1393.922	1300.13794	-352.98227	1212.69739	1206.96143	-337.24161	1061.13452	1194.7113	-256.07806	976.25983	1175.5675	-141.52788	902.57764	1205.29346	-185.21786	877.18903	1174.42041	-112.56641	835.01007	1170.47351	-363.54782	1390.80786	1611.96362	-445.30731	1196.73474	1704.31763	-457.50116	1073.34436	1707.40198	-445.86905	953.9599	1740.2644	-377.6676	828.90167	1729.35962	-424.65128	834.96539	1764.32263	-397.10236	753.03967	1763.27856	-317.92172	923.89142	1357.5813	-308.67972	936.16754	1572.83789	-501.78238	943.03619	1419.33215	-492.30762	945.58923	1565.33215	-384.97119	590.79547	1321.74841	-411.61102	458.05786	1344.52295	-483.33624	282.85284	1348.94507	-536.44397	74.06463	1410.02759	-582.18756	49.78688	1465.5332	-394.00555	31.95498	1393.18469	-260.08423	620.3241	1642.88708	-208.9075	470.65918	1619.09961	-258.07764	300.71286	1628.46655	-274.2262	93.17793	1584.66577	-318.19464	52.29506	1531.4552	-138.71466	55.65966	1595.24182	-308.89908	1712.4729	1495.4137	1973.10046	1023.48334	-3101.88452	2012.51147	1022.00116	-3140.64819	NaN	NaN	NaN
146	1.45	-308.06638	1671.77246	1405.66394	-279.14615	1680.08826	1515.95056	-415.44446	1611.95227	1430.4657	-387.44293	1619.42383	1547.68567	-431.87845	1429.16125	1458.25574	-471.83554	1137.85144	1463.48108	-287.65594	1362.01123	1461.43848	-246.21852	1205.81152	1455.98499	-489.26355	1235.88782	1530.70276	-341.3237	1393.43518	1300.31726	-342.47891	1212.41052	1206.99426	-325.47849	1060.9917	1194.36438	-242.965	977.44928	1175.30847	-127.15054	905.75336	1205.03369	-170.37862	879.61328	1174.22314	-96.91669	838.95197	1169.91162	-353.92514	1390.03601	1612.13452	-436.52097	1196.11853	1704.09497	-449.17746	1072.78491	1706.94934	-437.98438	953.22351	1739.67664	-370.30322	827.98358	1728.75061	-417.37115	834.24506	1763.70227	-390.08563	752.20575	1762.56763	-308.76382	923.29114	1357.21558	-297.98557	935.25598	1572.65955	-492.29691	942.67163	1420.26648	-481.80972	944.92621	1565.98499	-379.69699	590.83972	1321.74158	-408.33499	458.30707	1344.2605	-481.50888	283.78333	1348.99231	-535.93231	75.55523	1410.30872	-582.10968	51.57793	1465.60999	-393.94299	31.90069	1393.18262	-249.77965	620.24817	1644.80261	-200.12029	469.74106	1618.55615	-240.40594	297.94199	1629.00732	-243.27789	89.03826	1585.94055	-284.81439	45.67537	1532.86401	-105.40033	58.9699	1595.84985	-298.79794	1711.75012	1495.91467	1973.13269	1023.41089	-3101.84912	2012.56494	1021.94916	-3140.58984	NaN	NaN	NaN
147	1.46	-297.98914	1671.06348	1406.10022	-269.05212	1679.22083	1516.43958	-405.5072	1611.5647	1430.85107	-377.54584	1618.87158	1548.08679	-422.31732	1428.7771	1458.71252	-462.11096	1137.18274	1464.25793	-278.00241	1361.25195	1461.71265	-236.59999	1205.06958	1455.97021	-479.5224	1235.07532	1530.8728	-331.56445	1392.85535	1300.59583	-332.12479	1211.99573	1207.08154	-313.88309	1060.71521	1194.09021	-230.0584	978.44739	1175.11316	-112.88617	908.94794	1204.75403	-155.88057	881.87872	1174.12292	-81.68159	842.685	1169.50061	-344.31262	1389.20789	1612.38281	-427.68762	1195.41296	1703.97278	-440.6998	1072.16357	1706.62671	-429.99173	952.54535	1739.2489	-362.69647	827.01868	1728.22437	-409.68463	833.43817	1763.0481	-382.8089	751.24585	1761.92993	-299.68066	922.72357	1356.92236	-287.19452	934.18518	1572.38623	-482.6673	942.34442	1421.37488	-471.2113	944.26331	1566.88489	-374.38806	591.11786	1321.69739	-404.62277	458.63055	1343.96423	-479.46451	284.82483	1349.16528	-535.49902	76.80949	1410.38086	-581.55682	53.56897	1466.04504	-393.97293	31.8865	1393.0929	-246.20833	615.58459	1642.427	-191.47768	468.50113	1617.90051	-222.83598	295.84729	1629.72351	-213.42233	86.09982	1587.13379	-252.68393	40.78941	1534.55139	-73.54211	63.59724	1596.68542	-288.68631	1710.80029	1496.26331	1973.12866	1023.56805	-3101.87012	2012.49768	1022.04553	-3140.73486	NaN	NaN	NaN
148	1.47	-287.73114	1670.31982	1406.62549	-258.89368	1678.32397	1516.97705	-395.5022	1611.15955	1431.33691	-367.63403	1618.32104	1548.54028	-412.62555	1427.89844	1459.01978	-452.24847	1136.47327	1465.27991	-268.39838	1360.44836	1462.0376	-226.90402	1204.3501	1456.04431	-469.88495	1234.23462	1531.30371	-321.86456	1392.23584	1301.04565	-321.72043	1211.58838	1207.20789	-302.48245	1060.41516	1193.97095	-217.33995	979.2915	1175.03296	-99.14259	911.87061	1204.66992	-141.64928	884.0014	1174.17334	-66.89948	846.24286	1169.29395	-334.74496	1388.38733	1612.82495	-418.72849	1194.62646	1704.02332	-432.07721	1071.41956	1706.44519	-421.80942	951.70612	1738.85999	-354.91486	825.99872	1727.75513	-401.95618	832.44116	1762.51343	-375.25482	750.34467	1761.42017	-290.33627	922.30957	1356.63098	-276.27765	933.10394	1572.12598	-472.85944	941.91327	1422.55823	-460.44971	943.54163	1567.85046	-368.8732	591.44531	1321.51221	-400.44638	458.95972	1343.68982	-477.25098	286.36203	1349.38818	-535.02917	78.64739	1410.72607	-580.97943	55.80667	1466.4187	-394.08255	31.88172	1393.02625	-240.17351	612.73761	1642.59229	-182.68243	467.40701	1617.27954	-206.15591	293.74268	1629.6593	-184.69484	84.67522	1588.66956	-222.00543	37.01227	1536.24622	-43.55267	68.91593	1597.24536	-278.40302	1709.97241	1496.82007	1973.06067	1023.79333	-3101.9519	2012.50037	1022.0108	-3140.64526	NaN	NaN	NaN
149	1.48	-277.40988	1669.58252	1407.24353	-248.5966	1677.44751	1517.59583	-385.51331	1610.80396	1431.90588	-357.58231	1617.86536	1549.12292	-402.99207	1427.18909	1459.57593	-442.32855	1135.65222	1466.45496	-258.74503	1359.67871	1462.56628	-217.06691	1203.65515	1456.32861	-460.15564	1233.29895	1531.99182	-312.13867	1391.56104	1301.64392	-311.4205	1211.17017	1207.50964	-291.33685	1059.98975	1194.02014	-205.00473	980.05743	1175.08057	-85.73417	914.63354	1204.64624	-127.59309	885.94501	1173.98303	-52.40694	849.55408	1169.17944	-325.12192	1387.50232	1613.40515	-409.7164	1193.77173	1704.21399	-423.29037	1070.58997	1706.35388	-413.38077	950.76917	1738.54358	-346.85382	824.87756	1727.36926	-394.01917	831.474	1762.12512	-367.86246	748.84924	1760.98865	-280.41956	922.17542	1356.36536	-265.23196	931.89886	1571.78076	-462.95938	941.40344	1423.84766	-449.36569	942.58063	1568.89526	-363.02527	591.80878	1321.29199	-395.88913	459.45349	1343.37878	-474.47113	287.42999	1349.41736	-534.08624	80.16296	1411.05908	-580.30963	58.12542	1466.88147	-394.15051	31.90933	1393.00378	-234.2063	609.82117	1643.22156	-173.74353	466.15817	1616.59412	-189.49091	292.53403	1630.02344	-157.901	84.01943	1589.57117	-192.86365	34.36136	1537.34509	-15.71319	74.47812	1597.50586	-268.04031	1709.13989	1497.45447	1973.20959	1023.3338	-3101.98828	2012.54517	1022.05646	-3140.54761	NaN	NaN	NaN
